<?xml version="1.0" standalone="no"?><!DOCTYPE svg PUBLIC "-//W3C//DTD SVG 1.1//EN" "http://www.w3.org/Graphics/SVG/1.1/DTD/svg11.dtd"><svg t="1744278372376" class="icon" viewBox="0 0 1024 1024" version="1.1" xmlns="http://www.w3.org/2000/svg" p-id="3583" xmlns:xlink="http://www.w3.org/1999/xlink" width="200" height="200"><path d="M576.977142 9.253614l23.921561 23.921561a655.57836 655.57836 0 0 0 31.895415-7.973854c33.968617-3.109803 62.243902-5.573724 92.201671 11.960781L736.454217 49.122882c-1.993463 26.417377-1.993463 26.417377-7.973854 55.816977-16.322479 13.794767-16.322479 13.794767-31.895415 23.921561l15.47725 10.525487 20.899471 14.392806 20.468883 14.018035c56.351224 41.543778 97.528205 85.9103 139.008192 142.468845l15.309799 20.373196C990.772308 442.465114 1027.755042 531.357636 1015.539098 671.083475c-16.3464 85.455791-84.921542 148.130281-151.503221 199.346344l15.453329 26.417377C906.074034 942.322084 903.905146 963.117895 903.905146 1021.93304H122.467478c17.941171-80.735269 17.941171-80.735269 36.879074-116.123232l10.78065-20.460909L178.284454 870.429819l-18.969798-12.893722C102.87572 817.507351 61.802399 779.862788 26.781233 718.926597l-15.453328-26.417377C-23.095222 573.036969 30.712343 454.194653 86.186444 349.274685 149.586555 241.292758 243.255415 174.144935 361.683091 136.835274c36.783387-8.675553 73.981415-13.061172 111.633952-15.947708l-0.62196-26.2579C473.388808 61.601964 479.321355 44.745237 497.238604 17.227467c26.449273-20.971235 48.233841-16.689276 79.738538-7.973853z" fill="#FCD274" p-id="3584"></path><path d="M576.977142 9.253614l23.921561 23.921561a655.57836 655.57836 0 0 0 31.895415-7.973854c33.968617-3.109803 62.243902-5.573724 92.201671 11.960781L736.454217 49.122882c-1.993463 26.417377-1.993463 26.417377-7.973854 55.816977-16.322479 13.794767-16.322479 13.794767-31.895415 23.921561l15.47725 10.525487 20.899471 14.392806 20.468883 14.018035c56.351224 41.543778 97.528205 85.9103 139.008192 142.468845l15.309799 20.373196C990.772308 442.465114 1027.755042 531.357636 1015.539098 671.083475c-16.3464 85.455791-84.921542 148.130281-151.503221 199.346344l15.453329 26.417377c17.989014 30.763128 25.436593 54.939852 24.910319 90.694613l-0.215294 19.535941L903.905146 1021.93304h-23.921562l-2.089149-16.944439c-7.040913-47.572011-16.633459-81.851609-45.570574-120.572643C824.166608 870.429819 824.166608 870.429819 824.166608 838.534404c15.134374-14.480518 15.134374-14.480518 34.88561-28.410841 23.44313-16.705224 36.639858-27.039338 52.826781-51.327697l-22.43045-13.459865c-26.010711-18.866138-37.293714-28.865351-49.334233-58.304818-4.305881-38.800772-4.321829-55.601682 13.954244-90.208208 25.795417-30.802997 38.808746-43.05881 78.741806-51.327697C959.722122 543.501815 959.722122 543.501815 975.669829 551.475669a6383.628097 6383.628097 0 0 0-14.456596-41.368354l-8.125357-23.259731C943.933892 464.16197 932.98579 444.466551 919.852853 423.894009l-4.114508 16.043393C894.894691 515.888359 894.894691 515.888359 864.035877 543.501815c-30.842866 16.458034-62.562857 28.825481-95.686245 39.869269l47.843122 47.843122c-13.507708 48.018547-47.492273 87.521019-88.589515 114.839442C683.747044 767.902007 641.358037 775.245927 592.924849 766.76972c-54.557107-18.706661-105.836961-51.694494-143.529367-95.686245-7.160521-15.78823-7.160521-15.78823-7.973854-31.895415 9.688232-15.325747 9.688232-15.325747 23.427183-29.901952l13.667185-14.831368L489.264751 583.371084l-15.764309-3.82745c-57.292139-15.301825-91.029514-31.552539-126.768327-80.392394-15.230061-46.519463-18.945877-95.710167-1.961568-142.349237C365.502567 320.249858 392.294715 292.40516 433.447774 280.364641c55.210963-7.981828 100.630034-5.541828 146.519563 27.812802C599.439488 326.294039 611.870726 344.873118 624.820264 368.077032l13.459866-21.928097C661.468096 313.551821 682.351619 293.082938 720.506509 280.364641c15.086531-1.770196 30.212932-3.237385 45.355281-4.489279l24.009273-2.017385L808.218901 272.390787c-59.373315-57.794492-119.296826-96.435787-199.346344-119.607806 1.746274-14.639995 1.746274-14.639995 7.973854-31.895415 16.194897-11.275029 16.194897-11.275029 35.882342-20.931366 27.174894-12.040519 27.174894-12.040519 43.856195-34.88561-46.248352 4.752417-46.248352 4.752417-87.712391 23.921561l-15.947708 23.921561h-31.895415V41.149029l-31.895415 7.973853c-13.132937 26.265874-11.593983 55.258806-13.707054 84.251739C513.186312 152.782981 513.186312 152.782981 505.212458 160.756835a2232.67905 2232.67905 0 0 1-49.836586 5.98039c-111.23526 15.37359-220.875749 60.322204-294.003961 148.074464-43.481424 62.020634-72.601938 132.477606-96.898271 203.891441C58.676648 535.527961 58.676648 535.527961 50.702794 551.475669c-7.120651 88.97226 2.591502 143.26623 59.875668 211.147647 20.69215 21.098817 45.036326 35.75476 70.193835 50.992795l15.596858 9.720128c12.526924 7.798429 25.117639 15.493198 37.732276 23.172018-7.296076 37.652537-26.521038 69.372528-44.07149 103.101929-11.386663 23.738163-19.934634 47.189266-27.693194 72.322854h-39.869269c9.999213-56.335277 28.402867-101.38755 55.816976-151.503221l-18.969798-12.893722C102.87572 817.507351 61.802399 779.862788 26.781233 718.926597l-15.453328-26.417377C-23.095222 573.036969 30.712343 454.194653 86.186444 349.274685 149.586555 241.292758 243.255415 174.144935 361.683091 136.835274c36.783387-8.675553 73.981415-13.061172 111.633952-15.947708l-0.62196-26.2579C473.388808 61.601964 479.321355 44.745237 497.238604 17.227467c26.449273-20.971235 48.233841-16.689276 79.738538-7.973853z" fill="#12110F" p-id="3585"></path><path d="M529.134019 304.286202c33.330709 18.818295 55.378414 43.026915 76.253964 74.754879 7.176468 43.074758 1.642614 79.698668-16.952413 119.113428-28.729795 31.680121-58.065603 51.574886-101.63474 54.596976-49.398024-3.412809-82.545334-20.62836-116.147154-57.587171-16.521825-43.146523-16.856727-90.981671 0-134.064404L385.604652 344.155471l19.440255-22.43045C441.34189 293.385944 485.780177 295.275748 529.134019 304.286202z" fill="#FAFAFA" p-id="3586"></path><path d="M808.218901 304.286202c38.744955 18.315942 61.159458 41.137111 79.738537 79.738538 6.395031 40.052667 4.784312 70.177887-13.459865 106.650294-32.509402 36.902995-58.264949 58.496191-108.141404 63.296451-46.981946-3.923136-73.686383-20.779863-104.656831-55.816976-18.874112-38.481818-27.876593-73.710304-15.915812-115.844148C678.109529 309.676528 732.746375 293.266337 808.218901 304.286202z" fill="#FBFBFB" p-id="3587"></path><path d="M308.361931 572.909388c26.768227 23.02849 42.508614 39.390838 47.867044 75.121676 1.698431 32.533323-1.148235 52.10116-15.47725 81.859582-28.650057 31.664173-52.428088 43.05881-94.689514 48.345476-40.889922-5.11124-63.766908-21.800516-90.702586-52.332402C141.867864 691.43275 140.089695 659.704786 146.389039 623.240352c13.07712-25.372803 31.608356-41.575673 54.325866-58.807171 40.826131-11.665748 70.488867-10.445748 107.647026 8.476207z" fill="#F1023D" p-id="3588"></path><path d="M681.633972 540.695018C722.779058 559.497366 756.301139 587.724808 784.297339 623.240352v15.947708c-124.87055 47.54809-124.87055 47.54809-191.37249 31.895415a3949.617213 3949.617213 0 0 0-32.708748-6.012286A6746.80524 6746.80524 0 0 1 465.343189 647.161914c47.125476-76.014748 123.642576-134.734207 216.290783-106.466896z" fill="#EF7B22" p-id="3589"></path><path d="M345.735383 391.998594h7.973854l3.82745 19.535941C371.490931 478.738175 371.490931 478.738175 417.500067 527.554107c31.257507 19.09738 58.791224 17.25542 93.971866 12.335552C548.215452 530.815414 575.996358 507.380258 600.898703 479.710985l7.973854 23.921561-7.973854 15.947708h39.869269v15.947707l-28.90522 5.980391C559.63401 554.681158 525.792975 584.678796 489.264751 623.240352l-15.947708 15.947708c122.765452 28.642083 122.765452 28.642083 247.189466 23.921561v15.947708c-76.214094 39.335021-162.267924 5.198953-239.215612-15.947708v15.947708l14.113721 6.698037c16.90457 8.795161 31.61633 18.74653 47.181293 29.678684 40.315805 25.165482 77.497885 32.987833 124.408066 23.865744C710.419584 726.31836 747.155129 704.653399 784.297339 679.057329c-18.196334 40.339726-46.447698 63.487824-85.718927 82.234353C626.670199 776.497822 575.015574 767.112596 513.186312 726.900451c-57.834361-42.684039-57.834361-42.684039-70.951351-71.605206C441.421628 639.18806 441.421628 639.18806 451.109861 623.862313l13.730976-14.576205 13.675159-14.831368L489.264751 583.371084l-15.764309-3.82745c-57.531355-15.365616-92.353174-31.416984-126.768327-81.891478-11.402611-32.955938-12.758166-63.073183-8.970586-97.679708l7.973854-7.973854z" fill="#100B07" p-id="3590"></path><path d="M975.669829 551.475669c12.638558 12.638558 9.943396 25.332933 10.46967 42.859464C985.605251 655.056029 966.141074 711.582678 927.826707 758.795866c-39.58221-9.895553-56.925342-22.01581-79.738538-55.816976-12.813983-25.63594-11.75346-51.933709-7.973853-79.738538 31.791755-60.178674 67.801678-86.492392 135.555513-71.764683z" fill="#EE023C" p-id="3591"></path><path d="M481.290897 663.109621c16.784962 2.471895 33.56195 4.967711 50.338939 7.479475l28.307181 4.202221C584.950996 679.057329 584.950996 679.057329 608.872557 687.031182c46.503515 4.856077 84.602588-1.881829 128.020222-18.690713C752.401924 663.109621 752.401924 663.109621 776.323486 663.109621c-14.137643 35.993976-37.166132 54.9558-71.86037 71.389913C660.862083 751.244627 622.093206 757.121357 576.977142 742.848159c-25.572149-13.962218-48.560769-30.284697-71.764684-47.843123l-23.921561-15.947707v-15.947708z" fill="#EC7A22" p-id="3592"></path><path d="M836.629742 377.047618C856.062023 384.02474 856.062023 384.02474 872.009731 407.946301c-2.862613 23.602607-6.753854 30.675415-23.921562 47.843123-24.918293-2.990195-24.918293-2.990195-47.843122-7.973854-10.589278-43.329921-10.589278-43.329921 0.996732-63.296451C816.192754 376.050886 816.192754 376.050886 836.629742 377.055592z" fill="#080808" p-id="3593"></path><path d="M553.055581 378.546702C569.003288 384.02474 569.003288 384.02474 584.950996 399.972447c-2.990195 24.918293-2.990195 24.918293-7.973854 47.843123l-47.843123 7.973854c-12.957512-13.459865-12.957512-13.459865-23.921561-31.895415 5.486011-21.433719 5.486011-21.433719 15.947708-39.869269 15.947707-7.973854 15.947707-7.973854 31.895415-5.486011z" fill="#040404" p-id="3594"></path><path d="M776.323486 679.057329c0 23.921561 0 23.921561-10.525487 36.161427C714.701544 758.460964 675.135282 769.058216 608.872557 766.76972v-15.947707l18.411628-3.548365C685.971749 734.515482 728.958794 716.008167 776.323486 679.057329z" fill="#0D0805" p-id="3595"></path><path d="M696.584948 65.07059c-8.252939 22.502215-13.555551 30.571755-34.88561 42.365085-21.768621 5.701305-32.030971 5.206926-52.826781-2.495816v-23.921562c32.716722-19.025615 50.92103-27.852671 87.712391-15.947707z" fill="#EDC96E" p-id="3596"></path><path d="M210.179869 208.599957l15.947708 7.973854-103.660099 103.660099c0-32.286134 10.310193-39.99685 31.895415-63.79083a1414.768975 1414.768975 0 0 1 55.816976-47.843123z" fill="#2A2A2A" p-id="3597"></path></svg>